<?xml version="1.0" encoding="utf-8"?>
<!-- Generator: Adobe Illustrator 23.0.6, SVG Export Plug-In . SVG Version: 6.00 Build 0)  -->
<svg version="1.1" id="Layer_1" xmlns="http://www.w3.org/2000/svg" xmlns:xlink="http://www.w3.org/1999/xlink" x="0px" y="0px"
	 viewBox="0 0 24 24" style="enable-background:new 0 0 24 24;" xml:space="preserve">
<style type="text/css">
	.st0{fill:none;}
	.st1{fill:#FFFFFF;}
</style>
<path class="st0" d="M0,0h24v24H0V0z"/>
<path d="M15,8 M16,6H4C3.5,6,3,6.4,3,7v10c0,0.5,0.5,1,1,1h12c0.5,0,1-0.5,1-1v-3.5l4,4v-11l-4,4V7C17,6.4,16.5,6,16,6z"/>
<path class="st1" d="M6.6,11.1c0.1,0,0.3,0,0.4,0c0.2,0.1,0.4,0.2,0.6,0.3c0.1,0.1,0.2,0.2,0.3,0.3c0.1-0.1,0.3-0.3,0.4-0.4
	c0.2-0.1,0.3-0.2,0.5-0.2c0.1,0,0.3,0,0.4,0c0.3,0.1,0.6,0.2,0.8,0.5c0.4,0.5,0.4,1.3-0.1,1.8c-0.2,0.2-0.3,0.4-0.5,0.6
	C9,14.5,8.6,15,8.1,15.4c-0.2,0.2-0.2,0.2-0.4,0c-0.5-0.5-1-1.1-1.5-1.6c-0.3-0.3-0.6-0.6-0.7-1.1c0-0.2,0-0.3,0-0.5
	c0-0.1,0-0.1,0.1-0.2c0.2-0.4,0.4-0.7,0.8-0.9C6.4,11.1,6.5,11.1,6.6,11.1z"/>
</svg>
